<?xml version="1.0" encoding="utf-8"?><!-- Uploaded to: SVG Repo, www.svgrepo.com, Generator: SVG Repo Mixer Tools -->
<svg fill="#000000" width="800px" height="800px" viewBox="0 0 24 24" id="tablet-stylus" data-name="Flat Color" xmlns="http://www.w3.org/2000/svg" class="icon flat-color"><path id="secondary" d="M19.71,18.29l1,1a1,1,0,0,1,0,1.42,1,1,0,0,1-1.42,0l-1-1a1,1,0,0,1,1.42-1.42ZM3.29,6.12,4.71,7.54a1,1,0,0,0,1.41,0L7.54,6.12a1,1,0,0,0,.29-.71,1,1,0,0,0-.29-.7L6.12,3.29a1,1,0,0,0-1.41,0L3.29,4.71A1,1,0,0,0,3.29,6.12Z" style="fill: rgb(44, 169, 188);"></path><path id="primary" d="M6.54,3.71,3.71,6.54A1,1,0,0,0,3.71,8L15.46,19.71a1.05,1.05,0,0,0,.71.29H19a1,1,0,0,0,1-1V16.17a1.05,1.05,0,0,0-.29-.71L8,3.71A1,1,0,0,0,6.54,3.71Z" style="fill: rgb(0, 0, 0);"></path></svg>