<?xml version="1.0" encoding="utf-8"?>
<!-- Generator: Adobe Illustrator 27.5.0, SVG Export Plug-In . SVG Version: 6.00 Build 0)  -->
<svg version="1.1" xmlns="http://www.w3.org/2000/svg" xmlns:xlink="http://www.w3.org/1999/xlink" x="0px" y="0px"
	 viewBox="0 0 2200 2200" style="enable-background:new 0 0 2200 2200;" xml:space="preserve">
<g id="background">
	<rect style="fill:#FFFFFF;" width="2200" height="2200"/>
</g>
<g id="Objects">
	<g>
		<rect x="1077.099" y="284.763" width="45.803" height="129.87"/>
		<rect x="439.282" y="676.629" transform="matrix(0.5 -0.866 0.866 0.5 -402.6279 750.2742)" width="18.321" height="94.388"/>
		<rect x="714.663" y="401.249" transform="matrix(0.866 -0.5 0.5 0.866 -127.2471 421.9875)" width="18.321" height="94.387"/>
		<rect x="284.763" y="1077.099" width="129.87" height="45.802"/>
		<rect x="676.63" y="1742.397" transform="matrix(0.5 -0.866 0.866 0.5 -1154.9908 1502.6964)" width="94.387" height="18.321"/>
		<rect x="401.249" y="1467.016" transform="matrix(0.866 -0.5 0.5 0.866 -677.9702 421.9504)" width="94.387" height="18.321"/>
		<rect x="1077.099" y="1785.367" width="45.803" height="129.87"/>
		<rect x="1742.397" y="1428.983" transform="matrix(0.5 -0.866 0.866 0.5 -402.6241 2254.9919)" width="18.321" height="94.387"/>
		<rect x="1467.016" y="1704.364" transform="matrix(0.866 -0.5 0.5 0.866 -678.0049 972.7424)" width="18.321" height="94.387"/>
		<rect x="1785.367" y="1077.099" width="129.87" height="45.802"/>
		<rect x="1428.983" y="439.282" transform="matrix(0.5 -0.866 0.866 0.5 349.7642 1502.6687)" width="94.387" height="18.321"/>
		<rect x="1704.364" y="714.663" transform="matrix(0.866 -0.5 0.5 0.866 -127.2497 972.7345)" width="94.388" height="18.321"/>
		<path d="M1517.629,1122.901H917.791c-12.647,0-22.901-10.254-22.901-22.901c0-12.648,10.254-22.901,22.901-22.901h599.838
			c12.647,0,22.901,10.253,22.901,22.901C1540.53,1112.647,1530.276,1122.901,1517.629,1122.901z"/>
		<path d="M1100,1305.11c-12.647,0-22.901-10.254-22.901-22.901V640.975c0-12.648,10.254-22.901,22.901-22.901
			s22.901,10.253,22.901,22.901v641.234C1122.901,1294.856,1112.647,1305.11,1100,1305.11z"/>
		<path d="M1100,1305.11c-12.647,0-22.901-10.254-22.901-22.901V497.691c0-12.648,10.254-22.901,22.901-22.901
			s22.901,10.253,22.901,22.901v784.518C1122.901,1294.856,1112.647,1305.11,1100,1305.11z"/>
		<circle cx="1100" cy="1100" r="93.44"/>
		<path d="M760.145,1449.016c-2.345,0-4.688-0.895-6.478-2.683c-3.577-3.577-3.577-9.378,0-12.955l469.954-469.955
			c3.578-3.577,9.377-3.577,12.955,0c3.577,3.578,3.577,9.377,0,12.955l-469.954,469.955
			C764.833,1448.121,762.489,1449.016,760.145,1449.016z"/>
	</g>
</g>
</svg>
