<?xml version="1.0" encoding="UTF-8" standalone="no"?>
<svg
   height="48"
   viewBox="0 -960 960 960"
   width="48"
   fill="#e8eaed"
   version="1.1"
   id="svg1"
   xmlns="http://www.w3.org/2000/svg"
   xmlns:svg="http://www.w3.org/2000/svg">
  <defs
     id="defs1" />
  <path
     d="m 180,-120 q -24,0 -42,-18 -18,-18 -18,-42 v -270 h 60 v 270 h 270 v 60 z m 330,0 v -60 h 270 v -270 h 60 v 270 q 0,24 -18,42 -18,18 -42,18 z m -273,-148 118,-152 93,127 132,-171 147,196 z M 120,-510 v -270 q 0,-24 18,-42 18,-18 42,-18 h 270 v 60 H 180 v 270 z m 660,0 V -780 H 510 v -60 h 270 q 24,0 42,18 18,18 18,42 v 270 z m -156,-60 q -23.4,0 -38.7,-15.3 -15.3,-15.3 -15.3,-38.7 0,-23.4 15.3,-38.7 15.3,-15.3 38.7,-15.3 23.4,0 38.7,15.3 15.3,15.3 15.3,38.7 0,23.4 -15.3,38.7 -15.3,15.3 -38.7,15.3 z"
     id="path1" />
  <path
     style="fill:#4c4f69;fill-opacity:1;stroke:#000000;stroke-width:1.22293"
     d="m 120.4586,-648.5074 c 0,-150.15455 -0.25758,-144.23323 6.88766,-158.33368 4.1613,-8.21194 17.60072,-21.65136 25.81266,-25.81266 14.10045,-7.14524 8.17913,-6.88766 158.33368,-6.88766 h 137.93416 v 29.35032 29.35032 H 314.293 179.15924 V -645.707 -510.57324 H 149.80892 120.4586 Z"
     id="path2" />
  <path
     style="fill:#4c4f69;fill-opacity:1;stroke:#000000;stroke-width:1.22293"
     d="M 780.84076,-645.707 V -780.84076 H 645.707 510.57324 v -29.35032 -29.35032 H 648.5074 c 150.15454,0 144.23324,-0.25758 158.33368,6.88766 8.21194,4.1613 21.65136,17.60072 25.81266,25.81266 7.14524,14.10045 6.88766,8.17913 6.88766,158.33368 v 137.93416 h -29.35032 -29.35032 z"
     id="path3" />
  <path
     style="fill:#4c4f69;fill-opacity:1;stroke:#000000;stroke-width:1.22293"
     d="m 610.24204,-572.19374 c -19.41328,-4.72716 -34.26556,-20.06508 -38.38216,-39.63716 -6.01124,-28.58 9.30164,-55.6467 35.78902,-63.25982 5.30362,-1.5244 10.43778,-1.9432 19.56688,-1.596 10.70438,0.407 13.46078,0.98 20.40114,4.2411 10.466,4.91756 19.91112,14.36268 24.82868,24.82868 3.261,6.94036 3.834,9.69676 4.2411,20.40114 0.7332,19.27924 -3.97998,31.7758 -16.25038,43.08624 -12.66788,11.67686 -32.19168,16.31944 -50.19428,11.9358 z"
     id="path4" />
  <path
     style="fill:#4c4f69;fill-opacity:1;stroke:#000000;stroke-width:1.22293"
     d="m 295.68912,-342.78694 c 31.7557,-40.89462 58.27284,-74.55376 58.92696,-74.7981 0.6542,-0.2444 21.71444,27.5741 46.8007,61.81878 25.08624,34.2447 46.01346,62.37886 46.50492,62.52038 0.6396,0.184 117.38884,-150.10622 130.66374,-168.2024 1.1132,-1.5176 14.5124,15.68822 73.24234,94.05024 39.5339,52.74918 72.42,96.5955 73.08022,97.43626 0.9594,1.2218 -47.79036,1.5286 -242.87806,1.5286 H 237.95148 Z"
     id="path5" />
  <path
     style="fill:#4c4f69;fill-opacity:1;stroke:#000000;stroke-width:1.22293"
     d="m 166.03053,-122.34386 c -10.52239,-2.8338 -18.79584,-7.77352 -27.35449,-16.33218 -4.4498,-4.4498 -9.5482,-10.96708 -11.32978,-14.48288 -7.14524,-14.10044 -6.88766,-8.17914 -6.88766,-158.33368 v -137.93416 h 29.35032 29.35032 V -314.293 -179.15924 H 314.293 449.42676 v 29.35032 29.35032 l -138.49682,-0.08 c -115.14728,-0.0674 -139.57625,-0.37166 -144.89941,-1.80526 z"
     id="path6" />
  <path
     style="fill:#4c4f69;fill-opacity:1;stroke:#000000;stroke-width:1.22293"
     d="m 510.57324,-149.80892 v -29.35032 H 645.707 780.84076 V -314.293 -449.42676 h 29.35032 29.35032 v 137.93416 c 0,150.15454 0.2576,144.23324 -6.88766,158.33368 -4.1613,8.21194 -17.60072,21.65136 -25.81266,25.81266 -14.10044,7.14524 -8.17914,6.88766 -158.33368,6.88766 H 510.57324 Z"
     id="path7" />
</svg>
